<?xml version="1.0" encoding="UTF-8"?>
<svg id="Layer_1" data-name="Layer 1" xmlns="http://www.w3.org/2000/svg" viewBox="0 0 167.32 161.4">
  <path d="M148.92,76.6c.05.29-.35.27-.56.34-3.12,1-6.68,1.64-9.89,2.52-11.69,3.21-24.63,7.17-34.62,14.18-19.53,13.7-24.02,38.29-29.64,59.96-3.85-15.38-7.19-32.05-15.82-45.59-11.27-17.68-30.56-23.81-49.84-28.96-2.61-.7-5.67-1.18-8.17-2.03-.26-.09-.61-.06-.67-.42,20.52-5.11,43.94-10.38,56.96-28.54,9.86-13.75,13.46-31.92,17.54-48.06,5.21,19.56,9.43,43.01,25.61,56.8,8.83,7.53,20.54,11.92,31.54,15.26,5.77,1.75,11.65,3.29,17.55,4.55ZM100.32,76.6c-7.8-1.77-16.27-3.95-20.68-11.22-2.99-4.93-3.44-9.64-5.13-14.87-.07-.22-.07-.48-.38-.52-1.16,5.16-2.45,10.92-5.24,15.46-4.46,7.25-13,9.33-20.76,11.24,5.27,1.66,11.06,2.68,15.66,5.94,6.8,4.81,8.55,13.35,10.44,20.96,2.72-10.1,4.22-18.52,14.63-23.17,3.69-1.65,7.41-2.11,10.96-3.44.21-.08.48-.08.51-.39Z"/>
  <path d="M167.32,126.6c-.03.3-.3.31-.51.39-5.14,1.92-10.29,2.48-15.56,5.04-12.13,5.9-14.37,17.38-17.43,29.37-2.4-9.69-4.56-20.83-13.24-26.97-3.54-2.5-8.03-4.16-12.16-5.44-2.38-.74-5.39-1.18-7.59-2.01-.21-.08-.48-.08-.51-.39,9.97-2.27,21.04-5.11,26.68-14.42,3.67-6.04,5.08-13.22,6.82-19.99,2.59,9.74,4.64,20.81,13.44,26.97,5.75,4.03,13.31,5.82,20.06,7.44ZM145.12,126.6c-2.04-.36-4.41-1.04-6.18-2.12-3.42-2.08-3.99-5.74-5.12-9.29-.82,3.07-1.5,6.58-4.12,8.69-2.03,1.63-4.73,2.18-7.19,2.82,2.31.83,4.84,1.25,6.87,2.73,2.82,2.07,3.62,5.77,4.43,8.97,1.24-4.21,1.86-7.97,6.23-9.97,1.47-.67,3.12-.9,4.56-1.44.21-.08.48-.08.51-.39Z"/>
</svg>