<?xml version="1.0" encoding="UTF-8"?>
<svg id="Layer_1" data-name="Layer 1" xmlns="http://www.w3.org/2000/svg" viewBox="0 0 137.29 80.72">
  <defs>
    <style>
      .cls-1 {
        fill: none;
      }

      .cls-2 {
        fill: #010101;
      }

      .cls-3 {
        fill: #29b6ea;
      }
    </style>
  </defs>
  <path class="cls-3" d="M79.69,40.36l-.19.05h-19.04c-6.72-1.15-14.88-.97-18-8.24-1.64-3.82-1.93-8.24-2.56-12.32-.63,3.55-.85,7.2-1.96,10.65-1.8,5.6-5.08,7.46-10.61,8.65-2.64.57-5.34.87-8.02,1.26l.41.1c4.58.64,11.31,1.17,14.9,4.31,4.2,3.68,4.33,10.99,5.25,16.12l-.03,19.77c-.62-4.11-1.04-8.25-1.78-12.34-1.2-6.73-3.06-14.72-8.42-19.38-3.56-3.1-8.24-4.68-12.78-5.78-5.54-1.34-11.23-1.95-16.87-2.74.02-.1.11-.09.19-.11.26-.07.61-.11.88-.15,2.02-.32,4.07-.49,6.1-.78,8.43-1.19,19.67-3.06,25.05-10.33,2.79-3.77,4.28-8.86,5.25-13.41,1.11-5.18,1.66-10.46,2.43-15.69.97,6.66,1.59,13.42,3.46,19.91,2.63,9.13,6.75,13.83,15.89,16.73,6.61,2.1,13.59,2.76,20.44,3.72Z"/>
  <g>
    <rect class="cls-1" x="40.98" y="42.53" width="96.31" height="28.02"/>
    <path class="cls-2" d="M42.08,55.31v-12.78h2.29v12.78h-2.29ZM43,44.76v-2.22h6.2v2.22h-6.2ZM43,50.07v-2.21h5.49v2.21h-5.49ZM43,55.31v-2.22h6.2v2.22h-6.2Z"/>
    <path class="cls-2" d="M50.86,55.31v-12.78h2.29v12.78h-2.29ZM51.84,55.31v-2.21h6.05v2.21h-6.05Z"/>
    <path class="cls-2" d="M59.33,55.31v-12.78h2.29v12.78h-2.29ZM60.31,55.31v-2.21h6.05v2.21h-6.05Z"/>
    <path class="cls-2" d="M69.96,42.53v12.78h-2.33v-12.78h2.33Z"/>
    <path class="cls-2" d="M71.98,55.31v-12.78h2.29v12.78h-2.29ZM72.9,44.76v-2.22h6.2v2.22h-6.2ZM72.9,50.07v-2.21h5.49v2.21h-5.49ZM72.9,55.31v-2.22h6.2v2.22h-6.2Z"/>
    <path class="cls-2" d="M84.99,55.31v-12.78h2.29v12.78h-2.29ZM86.06,50.08v-2.17h5.86v2.17h-5.86ZM90.44,55.31v-12.78h2.29v12.78h-2.29Z"/>
    <path class="cls-2" d="M93.82,55.31l3.96-12.78h1.53l3.96,12.78h-2.37l-2.36-8.54-2.36,8.54h-2.37ZM96.03,53.3v-2.18h5.1v2.18h-5.1Z"/>
    <path class="cls-2" d="M104.55,55.31v-12.79h2.27v12.79h-2.27ZM105.52,50.04v-2.21h3.37c.33,0,.6-.11.79-.32.19-.21.29-.5.29-.85v-.72c0-.37-.1-.66-.29-.88-.19-.22-.45-.33-.79-.33h-3.37v-2.21h3.39c.7,0,1.31.13,1.82.4s.9.66,1.18,1.16.41,1.1.41,1.79v.75c0,.7-.14,1.31-.42,1.82-.28.51-.67.9-1.18,1.18-.51.28-1.11.41-1.82.41h-3.39ZM110.15,55.31l-2.4-5.67,2.29-.4,2.73,6.07h-2.62Z"/>
    <path class="cls-2" d="M114.49,55.31v-12.79h2.27v12.79h-2.27ZM115.45,50.04v-2.21h3.37c.33,0,.6-.11.79-.32.19-.21.29-.5.29-.85v-.72c0-.37-.1-.66-.29-.88-.19-.22-.45-.33-.79-.33h-3.37v-2.21h3.39c.7,0,1.31.13,1.82.4s.9.66,1.18,1.16.41,1.1.41,1.79v.75c0,.7-.14,1.31-.42,1.82-.28.51-.67.9-1.18,1.18-.51.28-1.11.41-1.82.41h-3.39ZM120.08,55.31l-2.4-5.67,2.29-.4,2.73,6.07h-2.62Z"/>
    <path class="cls-2" d="M126.57,42.53v12.78h-2.33v-12.78h2.33Z"/>
    <path class="cls-2" d="M132.11,55.45c-.71,0-1.34-.11-1.89-.32-.54-.21-1-.53-1.35-.95s-.61-.94-.76-1.56l2.14-.95c.17.52.42.91.76,1.17s.75.39,1.23.39c.52,0,.91-.11,1.19-.33s.41-.53.41-.93v-.57c0-.32-.09-.58-.28-.76s-.43-.33-.73-.45c-.3-.12-.63-.23-.99-.33-.4-.12-.8-.26-1.2-.4s-.77-.34-1.11-.59-.61-.58-.81-.99c-.21-.41-.31-.94-.31-1.59v-.34c0-1.11.34-1.98,1.02-2.59.68-.61,1.65-.92,2.91-.92.95,0,1.73.23,2.35.68.62.46,1.04,1.14,1.26,2.04l-2.03.98c-.16-.5-.39-.88-.68-1.12-.29-.25-.63-.37-1.03-.37-.49,0-.86.1-1.12.31s-.4.49-.4.85v.43c0,.36.1.65.31.85.21.2.48.36.81.48.34.12.7.24,1.08.37.39.13.78.27,1.16.41.38.15.72.34,1.04.59.31.25.57.57.76.97s.29.9.29,1.5v.55c0,1.11-.35,1.97-1.05,2.59s-1.69.93-2.97.93Z"/>
    <path class="cls-2" d="M43.34,69.71l-2.24-8.52h1.23l1.59,6.61,1.59-6.61h1.23l-2.24,8.52h-1.15Z"/>
    <path class="cls-2" d="M49.84,69.8c-.45,0-.85-.07-1.2-.21s-.64-.34-.88-.61-.4-.6-.5-.98l1.11-.47c.11.38.29.67.54.87s.56.3.93.3c.46,0,.82-.1,1.07-.3s.37-.48.37-.84v-.38c0-.28-.07-.49-.21-.65s-.33-.28-.56-.38-.48-.18-.76-.25c-.27-.08-.53-.16-.8-.25s-.52-.22-.74-.38-.4-.38-.54-.64-.21-.62-.21-1.05v-.25c0-.71.22-1.27.66-1.65s1.07-.58,1.88-.58c.6,0,1.1.15,1.5.44s.67.72.82,1.28l-1.08.49c-.1-.36-.25-.64-.47-.83s-.47-.28-.77-.28c-.44,0-.78.1-1.03.29s-.36.47-.36.83v.27c0,.29.08.51.23.67s.36.28.61.37.52.18.81.26c.26.07.51.16.77.25s.49.22.7.38.38.37.51.63.19.6.19,1v.4c0,.71-.23,1.27-.68,1.66s-1.09.58-1.92.58Z"/>
    <path class="cls-2" d="M55.78,62.29v-1.1h5.07v1.1h-5.07ZM57.73,69.71v-7.82h1.15v7.82h-1.15Z"/>
    <path class="cls-2" d="M61.85,69.71v-8.52h1.15v8.52h-1.15ZM62.59,66.06v-1.09h3.67v1.09h-3.67ZM65.67,69.71v-8.52h1.15v8.52h-1.15Z"/>
    <path class="cls-2" d="M68.47,69.71v-8.52h1.15v8.52h-1.15ZM69.05,62.29v-1.1h3.98v1.1h-3.98ZM69.05,66.03v-1.09h3.52v1.09h-3.52ZM69.05,69.71v-1.1h3.98v1.1h-3.98Z"/>
    <path class="cls-2" d="M78.68,69.71l-2.24-8.52h1.23l1.59,6.61,1.59-6.61h1.23l-2.24,8.52h-1.15Z"/>
    <path class="cls-2" d="M81.87,69.71l2.55-8.52h1.02l2.55,8.52h-1.24l-1.82-6.82-1.82,6.82h-1.24ZM83.22,67.85v-1.09h3.5v1.09h-3.5Z"/>
    <path class="cls-2" d="M92.2,66.68l2.13-5.48h1.05v8.52h-1.1v-6.42l.08.38-1.78,4.75h-.77l-1.78-4.63.1-.49v6.42h-1.11v-8.52h1.07l2.12,5.48Z"/>
    <path class="cls-2" d="M97.03,69.71v-8.52h1.15v8.52h-1.15ZM97.64,66.41v-1.1h2.17c.31,0,.55-.11.74-.32s.28-.5.28-.85v-.66c0-.37-.09-.66-.28-.87s-.43-.32-.74-.32h-2.17v-1.1h2.13c.46,0,.86.09,1.19.28s.59.45.77.79.27.75.27,1.22v.68c0,.46-.09.87-.27,1.2s-.44.6-.77.78-.73.27-1.19.27h-2.13Z"/>
    <path class="cls-2" d="M104.42,61.19v8.52h-1.15v-8.52h1.15Z"/>
    <path class="cls-2" d="M106.05,69.71v-8.53h1.15v8.53h-1.15ZM106.57,66.11v-1.1h2.24c.32,0,.58-.1.77-.3s.28-.48.28-.83v-.44c0-.36-.09-.64-.28-.85s-.44-.31-.77-.31h-2.24v-1.1h2.16c.48,0,.89.09,1.24.27s.62.43.8.76.28.72.28,1.17v.5c0,.46-.09.85-.28,1.19s-.46.59-.8.77-.76.27-1.23.27h-2.16ZM110.03,69.71l-1.57-3.87,1.12-.27,1.77,4.14h-1.32Z"/>
    <path class="cls-2" d="M112.67,69.71v-8.52h1.15v8.52h-1.15ZM113.25,62.29v-1.1h3.98v1.1h-3.98ZM113.25,66.03v-1.09h3.52v1.09h-3.52ZM113.25,69.71v-1.1h3.98v1.1h-3.98Z"/>
    <path class="cls-2" d="M120.81,69.8c-.45,0-.85-.07-1.2-.21s-.64-.34-.88-.61-.4-.6-.5-.98l1.11-.47c.11.38.29.67.54.87s.56.3.93.3c.46,0,.82-.1,1.07-.3s.37-.48.37-.84v-.38c0-.28-.07-.49-.21-.65s-.33-.28-.56-.38-.48-.18-.76-.25c-.27-.08-.53-.16-.8-.25s-.52-.22-.74-.38-.4-.38-.54-.64-.21-.62-.21-1.05v-.25c0-.71.22-1.27.66-1.65s1.07-.58,1.88-.58c.6,0,1.1.15,1.5.44s.67.72.82,1.28l-1.08.49c-.1-.36-.25-.64-.47-.83s-.47-.28-.77-.28c-.44,0-.78.1-1.03.29s-.36.47-.36.83v.27c0,.29.08.51.23.67s.36.28.61.37.52.18.81.26c.26.07.51.16.77.25s.49.22.7.38.38.37.51.63.19.6.19,1v.4c0,.71-.23,1.27-.68,1.66s-1.09.58-1.92.58Z"/>
  </g>
</svg>