<?xml version="1.0" encoding="UTF-8"?>
<svg id="Layer_1" data-name="Layer 1" xmlns="http://www.w3.org/2000/svg" viewBox="0 0 153.5 153.6">
  <path d="M77.8,0l19.19,10.26,17.56,17.54,14.31-14.3c.17-.32-.83-.68-.64-1.12l2.99-9.67,21.59-2.21-2.1,21.69-9.95,3.02c-.18-.12-.4-.6-.65-.47l-14.3,14.31,17.5,17.5,10.2,19.25v.2l-19.37-10.23-17.48-17.57-13.61,13.58c-4.44-2.17-8.52-5.34-11.37-9.39-.15-.22-.71-.89-.62-1.09l14.25-14.34-17.44-17.47L77.6,0h.2ZM149.2,4.1l-13.1,1.8,1.57.58c3.65,1.56,7.79,5.74,9.28,9.42.16.4.32.86.35,1.3l1.9-13.1ZM91.8,14.9l3.7,1.76c.83-1.11,1.85-2.77,1-4.11l-14.5-8.05,6.2,11.05,5.1,2.55-1.5-3.2ZM149.1,71.5l-8.06-14.39c-1.36-1-3.06.17-4.2.99l1.76,3.7-3.15-1.6c-.07-.02-.07.08-.05.15.14.44,2.26,4.64,2.5,4.9l11.2,6.25Z"/>
  <path d="M0,153.5v-.1l17.95-28.01c.16-.3-.19-.45-.35-.64l32.1-32.11c.2-.1.73.34.93.47,2.93,1.96,5.67,5.08,7.57,8.03.31.49,1.94,3.13,1.9,3.5l-31.25,31.35-.45-.45-.27.03L0,153.5ZM25,123.9l-4.4,2.35-13,19.65,19.7-13.05,3.55-6.66c.07-.1.06-.2.04-.32-.06-.32-1.33-1.98-1.62-1.96l-5.87,3.08,1.6-3.1Z"/>
  <path d="M148.3,76l-13.83,1.92c-10.45,1.75-21.4,3.34-31.13,7.67-15.12,6.72-20.32,18.45-23.88,33.82-2.39,10.32-3.63,20.9-5,31.4-.07,0-.12-.36-.14-.46-.79-4.78-1.2-9.75-1.93-14.57-1.14-7.55-2.46-15.35-4.63-22.67-4.91-16.58-12.68-24.95-29.27-30.13-12.2-3.81-25.25-5.15-37.88-6.92,0-.08.28-.12.36-.14,4.2-.74,8.71-1.08,12.97-1.73,14.82-2.23,33.85-5.16,44.37-16.73,9.53-10.48,12.39-29.56,14.38-43.22.63-4.34,1.1-8.72,1.77-13.03,1.74,12.76,3.06,25.95,6.8,38.3,4.87,16.08,12.61,24.3,28.67,29.43,12.32,3.93,25.6,5.24,38.38,7.07ZM112.7,76c-5.31-.74-10.67-1.34-15.9-2.55-11.05-2.55-16.24-6.47-19.27-17.63-1.6-5.91-2.26-12.06-3.08-18.12-1.29,7.66-1.77,16.1-4.9,23.3-4.17,9.58-12.64,11.68-22.13,13.37-3.76.67-7.57,1.08-11.32,1.68,6.06.82,12.21,1.47,18.12,3.08,11.17,3.03,15.07,8.22,17.63,19.27,1.21,5.24,1.77,10.61,2.6,15.9,1.14-7.45,1.69-15.69,4.6-22.7,4.04-9.71,11.8-11.98,21.43-13.77l12.22-1.83Z"/>
</svg>