<?xml version="1.0" encoding="UTF-8"?>
<svg xmlns="http://www.w3.org/2000/svg" viewBox="0 0 137.29 80.72">
  <defs>
    <style>
      .cls-1 {
        fill: none;
      }

      .cls-2 {
        fill: #010101;
      }
    </style>
  </defs>
  <g id="text">
    <g>
      <rect class="cls-1" x="40.98" y="43.53" width="96.31" height="28.02"/>
      <path class="cls-2" d="M45.44,60.57l-4.39-17.04h3.19l2.62,11.57,2.62-11.57h3.19l-4.39,17.04h-2.84Z"/>
      <path class="cls-2" d="M56.5,60.75c-1.1,0-1.93-.3-2.5-.91s-.84-1.51-.84-2.71.35-2.21,1.06-2.85,1.75-.96,3.12-.96h1.97l.16,2.38h-2.05c-.48,0-.85.12-1.09.36s-.36.6-.36,1.07c0,.38.12.66.35.84s.57.28,1.01.28c.63,0,1.11-.11,1.43-.32s.48-.53.48-.95l.22,1.39c-.03.52-.19.96-.46,1.31s-.63.62-1.07.79-.91.26-1.44.26ZM59.24,60.57v-8.23c0-.44-.14-.78-.41-1.01s-.66-.36-1.16-.36c-.37,0-.7.08-1,.24s-.54.39-.71.69l-2.38-.97c.24-.86.72-1.53,1.44-2s1.61-.71,2.68-.71c1.38,0,2.46.36,3.22,1.07s1.14,1.72,1.14,3.02v8.27h-2.82Z"/>
      <path class="cls-2" d="M64.82,60.57v-12.16h3.07v12.16h-3.07ZM70.81,60.57v-7.82c0-.55-.13-.97-.39-1.26s-.63-.44-1.12-.44c-.45,0-.8.13-1.04.4s-.36.64-.36,1.14l-.25-2.1c.31-.74.72-1.31,1.22-1.7s1.09-.59,1.75-.59c1.04,0,1.84.35,2.4,1.06s.84,1.71.84,3.01v8.3h-3.06ZM76.79,60.57v-7.82c0-.55-.12-.97-.38-1.26s-.61-.44-1.09-.44-.83.14-1.08.43-.38.69-.38,1.22l-.4-2.18c.34-.75.78-1.32,1.32-1.72s1.15-.6,1.81-.6c1.04,0,1.84.37,2.41,1.1s.86,1.77.86,3.09v8.17h-3.07Z"/>
      <path class="cls-2" d="M82.62,65.52v-17.11h3.05v17.11h-3.05ZM88.19,60.75c-.63,0-1.18-.18-1.65-.55s-.81-.88-1.04-1.54l.16-2.24c0,.33.05.61.16.83s.26.4.47.52.46.18.75.18c.45,0,.79-.15,1.03-.46s.36-.73.36-1.29v-3.45c0-.55-.12-.97-.36-1.28s-.59-.46-1.03-.46c-.29,0-.54.06-.75.18s-.37.29-.47.52-.16.5-.16.83l-.25-2.1c.3-.7.7-1.25,1.18-1.64s1.02-.59,1.61-.59c1.04,0,1.84.38,2.41,1.13s.85,1.82.85,3.21v3.87c0,1.38-.29,2.44-.86,3.2s-1.38,1.14-2.43,1.14Z"/>
      <path class="cls-2" d="M93.76,46.57v-3.04h3.06v3.04h-3.06ZM93.76,60.57v-12.16h3.06v12.16h-3.06Z"/>
      <path class="cls-2" d="M99.37,60.57v-12.16h3.16v12.16h-3.16ZM105.69,51.54c-.12-.09-.27-.15-.45-.19s-.38-.06-.61-.06c-.66,0-1.18.21-1.55.63s-.56.99-.56,1.72l-.25-3.11c.34-.72.78-1.29,1.32-1.7s1.14-.62,1.8-.62c.25,0,.48.04.69.12s.38.2.53.36l-.93,2.85Z"/>
      <path class="cls-2" d="M112.4,60.75c-1.49,0-2.65-.4-3.47-1.21s-1.23-1.94-1.23-3.4v-3.11c0-1.53.4-2.72,1.2-3.56s1.91-1.26,3.35-1.26,2.49.46,3.26,1.39,1.17,2.23,1.17,3.92v2.12h-6.76v-2.14h3.89v-.87c.02-.52-.13-.92-.43-1.22s-.68-.45-1.12-.45c-.52,0-.94.17-1.24.51s-.45.81-.45,1.42v3.32c0,.59.15,1.05.46,1.37s.74.47,1.31.47c.41,0,.75-.11,1.04-.32s.49-.52.6-.93l2.57.98c-.23.98-.7,1.71-1.41,2.21s-1.61.74-2.73.74Z"/>
      <path class="cls-2" d="M122.87,60.75c-1.23,0-2.26-.26-3.09-.77s-1.37-1.24-1.62-2.18l2.46-1.28c.24.46.58.82,1,1.07s.9.38,1.42.38c.48,0,.87-.09,1.14-.27s.42-.43.42-.74c0-.34-.12-.59-.36-.75s-.56-.29-.95-.38-.81-.18-1.25-.28c-.41-.12-.83-.25-1.24-.39s-.78-.33-1.12-.57-.61-.57-.81-.99-.31-.96-.31-1.63c0-1.16.38-2.07,1.14-2.74s1.81-1,3.13-1c1.12,0,2.07.24,2.82.73s1.27,1.18,1.55,2.09l-2.46,1.23c-.2-.41-.47-.72-.81-.94s-.72-.33-1.15-.33-.8.08-1.05.25-.39.39-.39.69c0,.28.11.5.32.65s.49.27.84.36.72.17,1.13.26c.43.09.87.2,1.31.32s.85.3,1.22.55.67.59.88,1.04.33,1.04.33,1.79c0,1.19-.4,2.12-1.2,2.81s-1.9,1.03-3.31,1.03Z"/>
    </g>
  </g>
  <g id="Sword">
    <path class="cls-2" d="M107.49,35.51l4.82.72,5.03,2.38,1.94-4.1c.01-.08-.23-.08-.22-.19l-.1-2.27,4.39-2.09,1.19,4.73-1.87,1.39s-.13-.1-.17-.05l-1.94,4.1,5.01,2.37,3.6,3.29.02.04-4.86-.7-5.01-2.39-1.85,3.89c-1.1-.12-2.2-.48-3.11-1.12-.05-.04-.22-.13-.21-.18l1.92-4.1-5-2.37-3.63-3.34.04-.02ZM122.86,30.99l-2.63,1.37h.37c.89.06,2.08.63,2.67,1.29.06.07.13.16.17.25,0,0-.59-2.91-.59-2.91ZM111.57,37.6l.91.09c.09-.3.18-.72-.1-.94l-3.67-.6,2.14,1.86,1.27.15s-.56-.56-.56-.56ZM127.92,45.22l-2.79-2.43c-.36-.11-.63.27-.81.53l.65.65-.79-.1s0,.02,0,.04c.06.08.83.81.9.85,0,0,2.83.47,2.83.47Z"/>
    <path class="cls-2" d="M101.56,77.22v-.02s1.7-7.38,1.7-7.38c.01-.08-.08-.08-.12-.11l4.42-9.35s.18.02.24.03c.78.2,1.61.65,2.24,1.14.1.08.66.52.68.61l-4.3,9.12-.13-.06-.06.03-4.66,6ZM104.66,68.96l-.76.84-1.28,5.21,3.23-4.31.25-1.7s0-.05-.02-.07c-.04-.06-.44-.32-.5-.3l-1.02,1.11.11-.79h0Z"/>
    <rect class="cls-2" x="107.34" y="60.88" width="3.61" height=".69" transform="translate(36.69 -40.81) rotate(25.33)"/>
    <rect class="cls-2" x="113.63" y="45.7" width="3.56" height="2.25" transform="translate(31.13 -44.88) rotate(25.33)"/>
  </g>
  <g id="Star">
    <path d="M79.69,40.36l-.19.05h-19.04c-6.72-1.15-14.88-.97-18-8.24-1.64-3.82-1.93-8.24-2.56-12.32-.63,3.55-.85,7.2-1.96,10.65-1.8,5.6-5.08,7.46-10.61,8.65-2.64.57-5.34.87-8.02,1.26l.41.1c4.58.64,11.31,1.17,14.9,4.31,4.2,3.68,4.33,10.99,5.25,16.12l-.03,19.77c-.62-4.11-1.04-8.25-1.78-12.34-1.2-6.73-3.06-14.72-8.42-19.38-3.56-3.1-8.24-4.68-12.78-5.78-5.54-1.34-11.23-1.95-16.87-2.74.02-.1.11-.09.19-.11.26-.07.61-.11.88-.15,2.02-.32,4.07-.49,6.1-.78,8.43-1.19,19.67-3.06,25.05-10.33,2.79-3.77,4.28-8.86,5.25-13.41,1.11-5.18,1.66-10.46,2.43-15.69.97,6.66,1.59,13.42,3.46,19.91,2.63,9.13,6.75,13.83,15.89,16.73,6.61,2.1,13.59,2.76,20.44,3.72Z"/>
  </g>
</svg>