<?xml version="1.0" encoding="UTF-8"?>
<svg id="Layer_1" data-name="Layer 1" xmlns="http://www.w3.org/2000/svg" viewBox="0 0 153.5 153.6">
  <defs>
    <style>
      .cls-1 {
        fill: none;
      }
    </style>
  </defs>
  <g>
    <path d="M123.12,41.88l-12.01-12.11,9.86-9.95.32.32,6.91-2.04,1.45-15.02-14.86,1.57-2.05,6.51c-.21.56.36.52.39.92l-9.81,9.9-12.11-12.1-13.23-7.16h-.09c0,.24.12.43.22.63,2.25,4.29,4.54,8.56,6.76,12.86l12.01,12.11-15.26,15.71c-.06.07-.04.11,0,.18.03.06.57.65.68.77,2.04,2.28,4.53,4.35,6.62,6.61l15.84-15.48,12.11,12.19,13.23,6.98v-.18l-6.98-13.23ZM118.45,6.77c2.89-.43,5.8-.73,8.69-1.17l-1.26,8.82-.28-.75c-1.42-2.97-4.08-5.75-7.28-6.72-.15-.14.01-.16.14-.18ZM90.17,14.23l-2.46-1.07.9,2.07-3.49-1.73-4.16-7.54,9.9,5.53c.56.66-.14,2.19-.69,2.74ZM119.34,47.82c-.16-.17-1.62-3.07-1.66-3.29-.01-.06-.02-.16.05-.13l2.03.99-1.08-2.51c.88-.45,1.91-1.34,2.88-.59l5.49,9.86-7.7-4.32Z"/>
    <path d="M121.46,87.74c-13.57-13.81-27.27-27.54-40.77-41.41-.21-.21-1.54-1.59-1.66-1.57l-9.51,9.49,48.25,48.88c6.73,5.28,14.98-3.33,9.19-9.91-1.64-1.87-3.73-3.69-5.5-5.49Z"/>
    <path d="M59,66.77c-.59.09-.56.28-.9.62-7.16,7.21-14.4,14.35-21.57,21.56l-.03.12.25.29-12.32,19.48,19.47-12.32c.15.04.23.35.42.22l32.04-32.5-7.42-7.43-9.94,9.96ZM43.19,94.62l-13.45,8.92,8.83-13.45,2.87-1.49c.07.07-.73,1.53-.83,1.74-.03.07-.15.19-.03.24l4.03-2.06c.28.23,1.09,1.11,1.04,1.45l-2.47,4.65Z"/>
    <path d="M44.32,38.05c1.87-1.76,4.34-2.62,6.89-2.74l9.14-9.14c.2-.35.05-1.9.09-2.43.39-6.36,4.01-11.72,10.03-13.91,2.35-.85,4.49-1.01,6.92-1.36.14-.02.54-.04.6-.17-1.86-1.05-3.59-2.3-5.58-3.11-7.83-3.16-15.69-.81-22.05,4.23l-12.43,12.42c-.19.89-.23,1.79-.47,2.68-.62,2.29-2.09,4.18-3.98,5.56l-.04.13,9.39,9.5c.56-.49.95-1.15,1.5-1.66ZM36.62,30.35v-.18c1.98-1.96,3.02-4.6,3.37-7.34l11.75-11.74c5.55-4.45,12.89-6.75,19.76-3.96-.01.12-.13.14-.22.18-.41.17-.99.28-1.45.44-7.64,2.81-11.55,9.44-11.61,17.46l-7.97,7.96c-2.85.31-5.41,1.42-7.51,3.36l-6.12-6.2Z"/>
    <path d="M51.34,35.53l16.68,16.78,9.14-9.12-16.6-16.89-9.22,9.22ZM68.03,49.25l-13.62-13.72,6.09-6.07,13.61,13.65-6.08,6.14Z"/>
    <path d="M36.08,49.08c1.26.88,2.72.83,3.92-.13.82-.66,3.46-3.26,4.02-4.09,1-1.47.58-2.87-.5-4.11-3.48-3.99-7.96-7.64-11.52-11.61-.73-.63-1.69-.8-2.63-.65-.47.07-1.05.44-1.42.74-.77.63-3.85,3.69-4.2,4.44-.9,1.87.14,3.01,1.32,4.3,3.5,3.8,7.5,7.33,11.03,11.11ZM25.78,34.45c.36-.52,3.06-3.2,3.6-3.6.11-.08.18-.17.34-.2.32-.07.7-.04.93.2l11.34,11.43c.44.54.62.82.18,1.44-.44.61-2.88,3.03-3.51,3.51-.45.35-.77.44-1.27.09-3.44-3.8-7.6-7.27-10.98-11.07-.48-.54-1.14-1.07-.63-1.8Z"/>
  </g>
  <g>
    <rect class="cls-1" x="2.46" y="107.47" width="148.57" height="43.41"/>
    <path d="M18.38,123.87l2.17-7.58h1.72l2.17,7.58,1.46-7.58h2.2l-2.62,11.36h-2.02l-2.02-7.94-2.11,7.94h-2.02l-2.62-11.36h2.2l1.46,7.58Z"/>
    <path d="M31.84,127.77c-1.11,0-1.98-.31-2.59-.93s-.91-1.49-.91-2.61v-1.32c0-1.11.3-1.97.91-2.58s1.47-.91,2.59-.91,1.98.3,2.59.91.91,1.47.91,2.58v1.34c0,1.11-.3,1.98-.91,2.59s-1.47.92-2.59.92ZM31.84,125.71c.43,0,.77-.13,1.01-.38.24-.25.36-.61.36-1.07v-1.34c0-.45-.12-.8-.36-1.05-.24-.25-.58-.38-1.01-.38s-.76.12-1,.38c-.24.25-.36.6-.36,1.05v1.34c0,.46.12.81.36,1.07.24.25.57.38,1,.38Z"/>
    <path d="M37.3,127.65v-8.11h2.3v8.11h-2.3ZM41.86,121.8c-.1-.1-.23-.18-.38-.23-.15-.05-.33-.08-.53-.08-.43,0-.77.14-1,.42-.24.28-.36.67-.36,1.16l-.16-2.11c.22-.48.51-.85.87-1.12.36-.27.75-.41,1.18-.41.34,0,.64.05.92.16s.51.26.71.47l-1.25,1.74Z"/>
    <path d="M44.12,127.65v-11.36h2.14v11.36h-2.14ZM45.41,127.09l-.29-2.36,3.78-5.19h2.27l-5.76,7.55ZM49.09,127.65l-2.05-4.19,1.77-1.06,2.76,5.25h-2.48Z"/>
    <path d="M59.1,116.29v11.36h-2.22v-11.36h2.22Z"/>
    <path d="M61.29,127.65v-8.11h2.14v8.11h-2.14ZM65.98,127.65v-4.91c0-.4-.11-.71-.34-.93s-.55-.32-.96-.32-.7.11-.92.33c-.22.22-.32.53-.32.93l-.16-1.8c.23-.49.52-.87.86-1.13s.77-.4,1.31-.4c.85,0,1.52.29,1.98.86s.7,1.39.7,2.44v4.92h-2.14Z"/>
    <path d="M74.68,127.65v-11.36h2.14v11.36h-2.14ZM75.66,123.25v-2.06h3.63c.39,0,.7-.13.94-.39s.36-.6.36-1.02-.12-.78-.36-1.04-.55-.39-.94-.39h-3.63v-2.06h3.58c.72,0,1.34.14,1.88.43s.95.69,1.25,1.21.45,1.13.45,1.84-.15,1.31-.45,1.83-.71.92-1.25,1.21-1.16.43-1.88.43h-3.58Z"/>
    <path d="M84.09,127.65v-8.11h2.3v8.11h-2.3ZM88.66,121.8c-.1-.1-.23-.18-.38-.23s-.33-.08-.53-.08c-.43,0-.77.14-1,.42s-.36.67-.36,1.16l-.16-2.11c.22-.48.51-.85.87-1.12s.75-.41,1.18-.41c.34,0,.64.05.92.16s.51.26.71.47l-1.25,1.74Z"/>
    <path d="M94.03,127.77c-1.11,0-1.98-.31-2.59-.93s-.91-1.49-.91-2.61v-1.32c0-1.11.3-1.97.91-2.58s1.47-.91,2.59-.91,1.98.3,2.59.91.91,1.47.91,2.58v1.34c0,1.11-.3,1.98-.91,2.59s-1.47.92-2.59.92ZM94.02,125.71c.43,0,.77-.13,1.01-.38s.36-.61.36-1.07v-1.34c0-.45-.12-.8-.36-1.05s-.58-.38-1.01-.38-.76.12-1,.38-.36.6-.36,1.05v1.34c0,.46.12.81.36,1.07s.57.38,1,.38Z"/>
    <path d="M101.98,127.77c-.86,0-1.54-.31-2.01-.92s-.71-1.48-.71-2.59v-1.3c0-1.12.24-2,.71-2.61s1.15-.93,2.01-.93c.43,0,.83.13,1.18.39s.64.62.86,1.1l-.16,1.8c0-.28-.05-.51-.14-.7s-.23-.34-.41-.44-.4-.15-.65-.15c-.4,0-.71.14-.93.41s-.33.66-.33,1.15v1.29c0,.48.11.86.33,1.12s.53.4.93.4c.25,0,.47-.05.65-.15s.32-.24.41-.43.14-.41.14-.68l.11,1.85c-.16.44-.42.79-.76,1.03s-.76.36-1.23.36ZM102.36,130.95c-.65,0-1.22-.11-1.73-.34s-.9-.55-1.18-.96l1.44-1.32c.18.19.4.34.66.45s.52.16.8.16c.43,0,.79-.12,1.09-.36s.44-.58.44-1.02v-8.02h2.14v7.87c0,1.12-.32,2-.95,2.61s-1.53.93-2.69.93Z"/>
    <path d="M108.11,127.65v-8.11h2.3v8.11h-2.3ZM112.67,121.8c-.1-.1-.23-.18-.38-.23s-.33-.08-.53-.08c-.43,0-.77.14-1,.42s-.36.67-.36,1.16l-.16-2.11c.22-.48.51-.85.87-1.12s.75-.41,1.18-.41c.34,0,.64.05.92.16s.51.26.71.47l-1.25,1.74Z"/>
    <path d="M118.26,127.77c-1.18,0-2.09-.32-2.74-.95s-.97-1.53-.97-2.68v-.91c0-1.21.31-2.14.93-2.8s1.5-.99,2.64-.99c1.07,0,1.9.39,2.49,1.18s.88,1.9.88,3.33v.53h-5.55v-1.45h3.59l-.02-.19c-.06-.46-.2-.82-.44-1.08s-.55-.39-.95-.39c-.52,0-.92.15-1.2.46s-.43.74-.43,1.3v1.03c0,.55.16.98.46,1.28s.74.45,1.3.45c.29,0,.57-.05.85-.15s.54-.25.77-.43l1.4,1.24c-.42.39-.9.68-1.42.89s-1.06.32-1.59.32Z"/>
    <path d="M126.46,127.77c-.73,0-1.42-.1-2.08-.29s-1.22-.47-1.68-.82l1.32-1.65c.39.25.8.44,1.23.58s.83.2,1.22.2c.5,0,.89-.06,1.16-.17s.41-.27.41-.46c0-.24-.09-.4-.29-.49s-.44-.15-.75-.18-.63-.07-.98-.11c-.35-.05-.69-.1-1.04-.17s-.65-.17-.93-.32-.5-.37-.67-.67-.25-.71-.25-1.22c0-.82.29-1.45.87-1.9s1.4-.67,2.45-.67c.62,0,1.23.09,1.83.27s1.14.44,1.61.77l-1.27,1.55c-.35-.2-.72-.35-1.11-.46s-.75-.16-1.11-.16c-.43,0-.77.05-1.01.14s-.36.24-.36.42c0,.16.08.27.25.35s.39.13.66.17.56.07.88.11c.36.04.72.09,1.09.15s.7.17,1,.32.55.39.74.71.28.75.28,1.31c0,.85-.3,1.51-.91,1.98s-1.46.7-2.57.7Z"/>
    <path d="M134.76,127.77c-.73,0-1.42-.1-2.08-.29s-1.22-.47-1.68-.82l1.32-1.65c.39.25.8.44,1.23.58s.83.2,1.22.2c.5,0,.89-.06,1.16-.17s.41-.27.41-.46c0-.24-.09-.4-.29-.49s-.44-.15-.75-.18-.63-.07-.98-.11c-.35-.05-.69-.1-1.04-.17s-.65-.17-.93-.32-.5-.37-.67-.67-.25-.71-.25-1.22c0-.82.29-1.45.87-1.9s1.4-.67,2.45-.67c.62,0,1.23.09,1.83.27s1.14.44,1.61.77l-1.27,1.55c-.35-.2-.72-.35-1.11-.46s-.75-.16-1.11-.16c-.43,0-.77.05-1.01.14s-.36.24-.36.42c0,.16.08.27.25.35s.39.13.66.17.56.07.88.11c.36.04.72.09,1.09.15s.7.17,1,.32.55.39.74.71.28.75.28,1.31c0,.85-.3,1.51-.91,1.98s-1.46.7-2.57.7Z"/>
    <path d="M4.14,142.05v-8.52h1.34v8.52h-1.34ZM4.8,138.75v-1.28h2.14c.27,0,.49-.09.65-.28s.24-.44.24-.74v-.57c0-.32-.08-.58-.24-.77s-.38-.28-.66-.28h-2.14v-1.28h2.12c.47,0,.88.09,1.22.27s.6.44.79.79.28.75.28,1.21v.7c0,.46-.09.86-.28,1.2s-.45.6-.8.78-.75.27-1.21.27h-2.12Z"/>
    <path d="M11.81,133.53v6.76c0,.15.04.27.11.35s.18.13.31.13h.34v1.28h-.63c-.46,0-.83-.14-1.08-.42s-.39-.68-.39-1.19v-6.91h1.34Z"/>
    <path d="M15.75,142.14c-.73,0-1.3-.2-1.7-.61s-.61-.98-.61-1.73v-1.48c0-.78.19-1.38.58-1.8s.94-.64,1.65-.64,1.21.23,1.59.69.57,1.1.57,1.94v1.03h-3.42v-1.01h2.15v-.38c0-.33-.07-.59-.24-.78s-.38-.28-.65-.28c-.31,0-.55.1-.72.3s-.25.49-.25.87v1.58c0,.34.09.61.27.8s.43.28.76.28c.22,0,.41-.05.56-.16s.25-.26.31-.46l1.17.42c-.12.47-.35.82-.69,1.07s-.78.36-1.33.36Z"/>
    <path d="M20.73,142.14c-.58,0-1.02-.15-1.32-.45s-.45-.75-.45-1.36.17-1.11.51-1.43.85-.48,1.52-.48h1.12l.08,1.08h-1.18c-.27,0-.47.07-.6.21s-.2.35-.2.62c0,.23.07.4.21.52s.35.17.62.17c.34,0,.6-.06.77-.18s.26-.29.26-.52l.12.7c-.04.25-.12.46-.25.62s-.3.29-.5.37-.44.12-.7.12ZM22.07,142.05v-4.13c0-.27-.08-.48-.23-.63s-.37-.23-.66-.23c-.2,0-.38.05-.54.14s-.29.22-.38.39l-1.08-.39c.12-.42.36-.75.71-.98s.78-.35,1.3-.35c.68,0,1.21.18,1.58.53s.56.85.56,1.5v4.15h-1.26Z"/>
    <path d="M26.61,142.14c-.62,0-1.12-.13-1.51-.38s-.65-.61-.78-1.09l1.13-.55c.12.26.28.46.49.59s.44.2.72.2c.3,0,.53-.06.69-.18s.24-.28.24-.49c0-.19-.06-.33-.18-.42s-.28-.16-.48-.21-.41-.09-.64-.13c-.21-.05-.41-.11-.62-.18s-.4-.16-.57-.28-.31-.29-.42-.49-.16-.48-.16-.81c0-.59.18-1.05.55-1.37s.88-.49,1.54-.49c.57,0,1.03.11,1.39.34s.61.57.74,1.01l-1.13.54c-.1-.22-.24-.39-.41-.51s-.37-.18-.6-.18c-.27,0-.48.06-.62.17s-.22.27-.22.47c0,.16.06.29.17.38s.26.15.44.2.37.09.58.13c.21.04.43.09.66.15s.43.15.62.27.34.29.45.52.16.52.16.89c0,.6-.19,1.07-.58,1.4s-.94.5-1.64.5Z"/>
    <path d="M32.03,142.14c-.73,0-1.3-.2-1.7-.61s-.61-.98-.61-1.73v-1.48c0-.78.19-1.38.58-1.8s.94-.64,1.65-.64,1.21.23,1.59.69.57,1.1.57,1.94v1.03h-3.42v-1.01h2.15v-.38c0-.33-.07-.59-.24-.78s-.38-.28-.65-.28c-.31,0-.55.1-.72.3s-.25.49-.25.87v1.58c0,.34.09.61.27.8s.43.28.76.28c.22,0,.41-.05.56-.16s.25-.26.31-.46l1.17.42c-.12.47-.35.82-.69,1.07s-.78.36-1.33.36Z"/>
    <path d="M40.71,142.14c-.52,0-.97-.11-1.35-.32s-.67-.52-.87-.92-.3-.88-.3-1.43v-3.35c0-.56.1-1.04.3-1.44s.49-.71.87-.92.83-.32,1.35-.32.95.1,1.3.3.64.51.84.91.32.91.36,1.5h-1.37c-.03-.3-.09-.56-.19-.77s-.23-.36-.38-.47-.35-.16-.57-.16c-.36,0-.64.12-.84.36s-.31.57-.31.99v3.35c0,.42.1.75.31.99s.49.35.84.35c.33,0,.59-.12.79-.35s.31-.58.35-1.04h1.37c-.04.6-.16,1.1-.36,1.5s-.48.71-.84.91-.79.3-1.3.3Z"/>
    <path d="M46.5,142.14c-.69,0-1.22-.19-1.6-.57s-.57-.91-.57-1.61v-1.95c0-.69.19-1.22.57-1.59s.92-.56,1.6-.56,1.23.19,1.61.56.57.9.57,1.59v1.96c0,.69-.19,1.22-.57,1.59s-.91.56-1.61.56ZM46.5,140.88c.27,0,.47-.08.62-.25s.22-.4.22-.69v-1.88c0-.29-.07-.52-.22-.68s-.35-.24-.62-.24-.47.08-.62.24-.22.39-.22.68v1.88c0,.29.07.52.22.69s.36.25.62.25Z"/>
    <path d="M50.01,142.05v-6.08h1.35v6.08h-1.35ZM53.06,142.05v-3.93c0-.32-.07-.57-.22-.74s-.36-.25-.64-.25-.48.08-.63.24-.22.38-.22.68l-.12-1.03c.16-.38.37-.66.63-.85s.56-.29.9-.29c.52,0,.93.18,1.21.53s.42.86.42,1.51v4.14h-1.34ZM56.1,142.05v-3.93c0-.32-.07-.57-.22-.74s-.37-.25-.65-.25c-.27,0-.48.08-.62.25s-.21.41-.21.72l-.2-1.04c.16-.39.38-.69.66-.89s.58-.3.91-.3c.54,0,.95.18,1.24.54s.44.87.44,1.54v4.1h-1.35Z"/>
    <path d="M61.07,142.14c-.73,0-1.3-.2-1.7-.61s-.61-.98-.61-1.73v-1.48c0-.78.19-1.38.58-1.8s.94-.64,1.65-.64,1.21.23,1.59.69.57,1.1.57,1.94v1.03h-3.42v-1.01h2.15v-.38c0-.33-.07-.59-.24-.78s-.38-.28-.65-.28c-.31,0-.55.1-.72.3s-.25.49-.25.87v1.58c0,.34.09.61.27.8s.43.28.76.28c.22,0,.41-.05.56-.16s.25-.26.31-.46l1.17.42c-.12.47-.35.82-.69,1.07s-.78.36-1.33.36Z"/>
    <path d="M67.33,142.05v-8.52h1.34v8.52h-1.34ZM68.06,142.05v-1.26h1.92c.36,0,.63-.08.8-.25s.26-.38.26-.66v-.57c0-.32-.09-.58-.26-.76s-.42-.27-.76-.27h-1.97v-1.25h1.96c.3,0,.53-.08.69-.24s.23-.39.23-.7v-.45c0-.28-.08-.49-.25-.64s-.4-.22-.71-.22h-1.93v-1.26h2.03c.71,0,1.26.18,1.63.53s.56.85.56,1.48v.46c0,.43-.12.79-.35,1.08s-.58.48-1.03.57c.48.07.85.26,1.11.58s.39.71.39,1.19v.59c0,.63-.19,1.13-.57,1.49s-.92.54-1.61.54h-2.15Z"/>
    <path d="M75.26,142.14c-.58,0-1.02-.15-1.32-.45s-.45-.75-.45-1.36.17-1.11.51-1.43.85-.48,1.52-.48h1.12l.08,1.08h-1.18c-.27,0-.47.07-.6.21s-.2.35-.2.62c0,.23.07.4.21.52s.35.17.62.17c.34,0,.6-.06.77-.18s.26-.29.26-.52l.12.7c-.04.25-.12.46-.25.62s-.3.29-.5.37-.44.12-.7.12ZM76.6,142.05v-4.13c0-.27-.08-.48-.23-.63s-.37-.23-.66-.23c-.2,0-.38.05-.54.14s-.29.22-.38.39l-1.08-.39c.12-.42.36-.75.71-.98s.78-.35,1.3-.35c.68,0,1.21.18,1.58.53s.56.85.56,1.5v4.15h-1.26Z"/>
    <path d="M81.46,142.14c-.73,0-1.29-.19-1.69-.58s-.59-.94-.59-1.65v-1.77c0-.72.2-1.28.59-1.67s.96-.59,1.69-.59c.6,0,1.08.13,1.42.4s.56.68.65,1.23l-1.23.41c-.05-.27-.15-.47-.3-.6s-.33-.19-.55-.19c-.3,0-.53.09-.69.28s-.25.44-.25.76v1.71c0,.32.08.57.25.74s.4.26.69.26c.22,0,.41-.06.55-.19s.24-.32.29-.57l1.23.42c-.08.54-.3.94-.64,1.2s-.82.39-1.42.39Z"/>
    <path d="M84.57,142.05v-8.52h1.34v8.52h-1.34ZM85.32,141.36l-.06-1.65,2.55-3.74h1.44l-3.93,5.38ZM88.04,142.05l-1.58-3.22.92-.85,2.14,4.07h-1.48Z"/>
    <path d="M93,142.05v-8.52h1.34v8.52h-1.34ZM93.63,142.05v-1.28h3.97v1.28h-3.97Z"/>
    <path d="M100.2,142.14c-.58,0-1.02-.15-1.32-.45s-.45-.75-.45-1.36.17-1.11.51-1.43.85-.48,1.52-.48h1.12l.08,1.08h-1.18c-.27,0-.47.07-.6.21s-.2.35-.2.62c0,.23.07.4.21.52s.35.17.62.17c.34,0,.6-.06.77-.18s.26-.29.26-.52l.12.7c-.04.25-.12.46-.25.62s-.3.29-.5.37-.44.12-.7.12ZM101.54,142.05v-4.13c0-.27-.08-.48-.23-.63s-.37-.23-.66-.23c-.2,0-.38.05-.54.14s-.29.22-.38.39l-1.08-.39c.12-.42.36-.75.71-.98s.78-.35,1.3-.35c.68,0,1.21.18,1.58.53s.56.85.56,1.5v4.15h-1.26Z"/>
    <path d="M103.79,137.18v-1.21h2.78v1.21h-2.78ZM105.89,142.08c-.53,0-.91-.14-1.15-.42s-.35-.68-.35-1.2v-6.27h1.34v6.12c0,.15.03.26.1.35s.16.13.28.13h.46v1.29h-.68Z"/>
    <path d="M109.95,142.14c-.73,0-1.3-.2-1.7-.61s-.61-.98-.61-1.73v-1.48c0-.78.19-1.38.58-1.8s.94-.64,1.65-.64,1.21.23,1.59.69.57,1.1.57,1.94v1.03h-3.42v-1.01h2.15v-.38c0-.33-.07-.59-.24-.78s-.38-.28-.65-.28c-.31,0-.55.1-.72.3s-.25.49-.25.87v1.58c0,.34.09.61.27.8s.43.28.76.28c.22,0,.41-.05.56-.16s.25-.26.31-.46l1.17.42c-.12.47-.35.82-.69,1.07s-.78.36-1.33.36Z"/>
    <path d="M113.36,142.05v-6.08h1.37v6.08h-1.37ZM116.48,137.36c-.06-.05-.14-.09-.23-.11s-.2-.04-.33-.04c-.38,0-.67.11-.87.32s-.31.5-.32.88l-.12-1.37c.18-.36.41-.65.7-.85s.61-.31.96-.31c.13,0,.25.02.36.06s.2.1.28.18l-.42,1.25Z"/>
    <path d="M116.79,144.05v-3.37h1.37v1.97l-1.37,1.4Z"/>
    <path d="M124.57,142.14c-.46,0-.87-.07-1.23-.21s-.65-.35-.89-.62-.4-.61-.5-1.01l1.27-.55c.11.36.28.64.52.83s.53.28.88.28c.41,0,.72-.09.93-.26s.33-.42.33-.73v-.38c0-.25-.07-.44-.2-.58s-.31-.25-.53-.34-.45-.16-.71-.23c-.26-.08-.53-.17-.8-.27s-.52-.22-.74-.39-.4-.38-.54-.65-.21-.62-.21-1.05v-.23c0-.73.22-1.3.67-1.7s1.08-.59,1.9-.59c.62,0,1.13.15,1.54.45s.68.74.83,1.32l-1.21.57c-.11-.35-.26-.61-.47-.79s-.45-.27-.72-.27c-.38,0-.68.08-.89.25s-.31.4-.31.71v.28c0,.27.07.47.22.62s.34.26.58.35.49.17.76.26c.26.08.51.17.77.26s.49.23.69.38.38.37.51.64.19.6.19,1.01v.38c0,.73-.23,1.29-.69,1.69s-1.11.6-1.95.6Z"/>
    <path d="M130.53,142.14c-.69,0-1.22-.19-1.6-.57s-.57-.91-.57-1.61v-1.95c0-.69.19-1.22.57-1.59s.92-.56,1.6-.56,1.23.19,1.61.56.57.9.57,1.59v1.96c0,.69-.19,1.22-.57,1.59s-.91.56-1.61.56ZM130.54,140.88c.27,0,.47-.08.62-.25s.22-.4.22-.69v-1.88c0-.29-.07-.52-.22-.68s-.35-.24-.62-.24-.47.08-.62.24-.22.39-.22.68v1.88c0,.29.07.52.22.69s.36.25.62.25Z"/>
    <path d="M134.05,142.05v-6.08h1.37v6.08h-1.37ZM137.17,137.36c-.06-.05-.14-.09-.23-.11s-.2-.04-.33-.04c-.38,0-.67.11-.87.32s-.31.5-.32.88l-.12-1.37c.18-.36.41-.65.7-.85s.61-.31.96-.31c.13,0,.25.02.36.06s.2.1.28.18l-.42,1.25Z"/>
    <path d="M138.48,142.05v-6.08h1.37v6.08h-1.37ZM141.6,137.36c-.06-.05-.14-.09-.23-.11s-.2-.04-.33-.04c-.38,0-.67.11-.87.32s-.31.5-.32.88l-.12-1.37c.18-.36.41-.65.7-.85s.61-.31.96-.31c.13,0,.25.02.36.06s.2.1.28.18l-.42,1.25Z"/>
    <path d="M144.55,142.59l-2.16-6.62h1.31l1.59,5.27-.74,1.35ZM145.95,135.97h1.31l-2.19,7.51c-.12.39-.32.68-.59.85s-.66.26-1.15.26h-.3v-1.3h.31c.21,0,.38-.04.5-.13s.22-.24.29-.45l1.83-6.74Z"/>
    <path d="M148.04,142.05v-1.37h1.37v1.37h-1.37ZM148.06,139.79v-6.26h1.33v6.26h-1.33Z"/>
  </g>
</svg>