<?xml version="1.0" encoding="UTF-8"?>
<svg id="Layer_3" data-name="Layer 3" xmlns="http://www.w3.org/2000/svg" viewBox="0 0 153.5 153.6">
  <polygon points="3.62 15.79 13.2 8.03 22.17 8.35 25.26 17.81 22.97 45.13 32.94 79.47 3.62 56.93 3.62 15.79"/>
  <polygon points="24.66 9.2 31.15 4.2 39.62 4.2 46.01 9.2 49.3 30.14 44.81 39.29 32.24 39.92 28.55 32.38 24.66 9.2"/>
  <path d="M51.39,7.42l4.64-3.22,9.08-.88,8.43,2.39,1.89,25.25s-8.63,4.52-8.83,4.57-12.27.27-12.27.27l-3.44-4.09"/>
  <polygon points="149.88 15.79 140.3 8.03 131.33 8.35 128.24 17.81 130.53 45.13 120.56 79.47 149.88 56.93 149.88 15.79"/>
  <polygon points="128.84 9.2 122.35 4.2 113.88 4.2 107.49 9.2 104.2 30.14 108.69 39.29 121.26 39.92 124.95 32.38 128.84 9.2"/>
  <path d="M102.11,7.42l-4.64-3.22-9.08-.88-8.43,2.39-1.89,25.25s8.63,4.52,8.83,4.57,12.27.27,12.27.27l3.44-4.09"/>
  <polygon points="13.67 137.87 22.29 144.35 30.36 144.08 33.15 136.18 31.08 113.35 40.06 84.67 13.67 103.5 13.67 137.87"/>
  <polygon points="34.02 141.91 39.5 146.71 46.67 146.71 52.07 141.91 54.86 121.78 51.06 112.99 40.43 112.38 37.31 119.63 34.02 141.91"/>
  <path d="M56.63,143.62l3.92,3.09,7.68.84,7.13-2.3,1.6-24.27s-7.3-4.34-7.46-4.39-10.37-.26-10.37-.26l-2.91,3.93"/>
  <polygon points="142.47 137.87 133.86 144.35 125.78 144.08 123 136.18 125.06 113.35 116.08 84.67 142.47 103.5 142.47 137.87"/>
  <polygon points="122.12 141.91 116.64 146.71 109.47 146.71 104.07 141.91 101.29 121.78 105.08 112.99 115.71 112.38 118.83 119.63 122.12 141.91"/>
  <path d="M99.52,143.62l-3.92,3.09-7.68.84-7.13-2.3-1.6-24.27s7.3-4.34,7.46-4.39,10.37-.26,10.37-.26l2.91,3.93"/>
</svg>